<svg xmlns="http://www.w3.org/2000/svg" baseProfile="full" width="235.108" height="58.664" viewBox="0 0 235.11 58.66" xml:space="preserve"><g fill="#0B3775"><path d="M92.588 12.21c-1.196 0-2.055.297-2.577.889-.522.592-.783 1.611-.783 3.058v1.715h7l-1.12 6.72h-5.88v22.951h-9.975V24.592H75v-6.72h4.253v-2.144c0-3.126 1.037-5.697 3.11-7.713 2.074-2.015 5.05-3.023 8.93-3.023 1.534 0 3.048.178 4.541.534 1.493.356 2.8.834 3.92 1.435l-2.686 6.422c-1.458-.781-2.952-1.172-4.48-1.172ZM115.207 16.752c.974 0 1.983.21 3.027.63l-1.627 9.59c-.969-.467-1.864-.7-2.687-.7-1.68 0-2.959.59-3.836 1.768-.878 1.178-1.559 2.966-2.044 5.363v14.149h-9.966v-29.68h8.68l.893 5.407c.6-1.971 1.601-3.552 3.001-4.742s2.919-1.785 4.559-1.785ZM148.08 32.388c0 .228-.055 1.362-.166 3.404h-18.261c.262 2.17.907 3.656 1.934 4.458 1.026.802 2.493 1.203 4.401 1.203 1.12 0 2.23-.204 3.329-.612 1.1-.409 2.303-1.038 3.61-1.89l4.033 5.407c-1.569 1.324-3.361 2.375-5.376 3.15-2.016.776-4.199 1.164-6.55 1.164-5.081 0-8.937-1.43-11.567-4.292-2.631-2.861-3.947-6.704-3.947-11.528 0-3.027.552-5.757 1.654-8.19 1.103-2.432 2.736-4.359 4.9-5.78 2.164-1.42 4.778-2.13 7.84-2.13 4.369 0 7.823 1.37 10.36 4.108 2.538 2.739 3.806 6.582 3.806 11.528Zm-9.8-2.572c-.035-2.2-.37-3.9-1.006-5.101-.636-1.202-1.7-1.803-3.194-1.803-1.382 0-2.428.54-3.136 1.619-.709 1.079-1.157 2.966-1.344 5.661h8.68v-.376ZM163.647 16.752c2.164 0 4.226.346 6.186 1.037s3.631 1.635 5.014 2.83l-3.579 5.67c-2.392-1.545-4.801-2.318-7.228-2.318-1.044 0-1.818.157-2.323.472-.504.315-.757.75-.757 1.304 0 .484.132.875.394 1.172.263.298.814.623 1.654.976s2.173.807 3.999 1.36c3.062.893 5.321 2.053 6.777 3.479 1.455 1.426 2.183 3.42 2.183 5.98 0 2.001-.588 3.753-1.763 5.255-1.176 1.502-2.799 2.661-4.87 3.478-2.071.817-4.413 1.225-7.026 1.225-2.543 0-4.925-.413-7.144-1.238-2.22-.825-4.097-1.967-5.631-3.426l4.76-5.381a15.38 15.38 0 0 0 3.727 2.065c1.325.508 2.66.761 4.008.761 1.19 0 2.112-.194 2.765-.582.653-.388.98-.97.98-1.745 0-.595-.14-1.059-.42-1.392-.28-.332-.811-.656-1.593-.97-.781-.316-2.126-.75-4.033-1.305-5.787-1.703-8.68-4.83-8.68-9.38 0-1.738.504-3.32 1.513-4.746 1.01-1.427 2.456-2.547 4.34-3.36 1.885-.814 4.133-1.221 6.747-1.221ZM193.327 16.752c2.164 0 4.105.303 5.823.91a14.64 14.64 0 0 1 4.703 2.739l-4.2 5.722c-1.715-1.435-3.523-2.152-5.425-2.152-1.832 0-3.214.674-4.148 2.021-.933 1.348-1.4 3.579-1.4 6.694 0 3.039.467 5.156 1.4 6.352.934 1.196 2.278 1.794 4.034 1.794.933 0 1.792-.152 2.577-.455.785-.303 1.737-.817 2.857-1.54l4.305 6.212c-2.87 2.416-6.286 3.623-10.246 3.623-3.133 0-5.848-.655-8.147-1.964-2.298-1.31-4.063-3.152-5.293-5.526-1.231-2.374-1.847-5.113-1.847-8.216 0-3.144.616-5.942 1.847-8.392 1.23-2.45 2.976-4.366 5.237-5.748 2.26-1.383 4.901-2.074 7.923-2.074ZM220.154 16.813c4.667 0 8.326 1.4 10.977 4.2 2.651 2.8 3.977 6.72 3.977 11.76 0 3.209-.598 6.007-1.794 8.396-1.196 2.389-2.922 4.236-5.18 5.543-2.257 1.307-4.917 1.96-7.98 1.96-4.666 0-8.325-1.4-10.977-4.2-2.651-2.8-3.977-6.72-3.977-11.76 0-3.208.598-6.007 1.794-8.396 1.196-2.388 2.923-4.236 5.18-5.543 2.258-1.306 4.918-1.96 7.98-1.96Zm0 7.219c-1.604 0-2.79.7-3.557 2.1-.767 1.4-1.15 3.593-1.15 6.58 0 3.103.383 5.336 1.15 6.698.767 1.362 1.953 2.043 3.557 2.043 1.604 0 2.788-.7 3.553-2.1.764-1.4 1.146-3.593 1.146-6.58 0-3.062-.382-5.285-1.146-6.667-.765-1.383-1.949-2.074-3.553-2.074Z"/></g><path fill="#0B3775" d="M6 6.186h44.904a6 6 0 0 1 6 6v30.5a6 6 0 0 1-6 6H6a6 6 0 0 1-6-6v-30.5a6 6 0 0 1 6-6Z"/><path fill-rule="evenodd" d="M48.173 4.768c5.434 2.534 5.022 5.727 4.197 7.496-1.709 3.665-4.548 2.495-5.432 4.39-.884 1.896 1.66 3.698 1.66 3.698l7.457 3.477a3.452 3.452 0 0 1 1.686 4.633l-2.829 6.066s-1.86 4.979-5.651 3.21c-2.401-1.119-.995-4.464-4.281-5.996-1.517-.707-3.867.043-5.399 3.33-1.532 3.285-.655 5.694.861 6.4 3.16 1.474 4.944-1.694 7.346-.574 3.79 1.768 1.231 6.267 1.231 6.267l-4.537 9.73c-.766 1.643-2.864 2.512-4.633 1.687l-10.236-4.773s-5.046-2.046-3.279-5.837c1.12-2.401 4.456-1.307 5.988-4.593.766-1.643-.119-4.363-3.405-5.895-3.285-1.533-6.065-.521-6.83 1.122-1.474 3.16 1.323 5.079.204 7.48-1.827 3.918-6.58 1.24-6.58 1.24l-4.296-2.003c-1.643-.766-2.452-2.99-1.686-4.633l5.245-11.247s1.102-3.024-.793-3.909c-1.896-.883-3.184 2.209-6.722.559-1.77-.826-4.516-3.183-1.923-8.744 2.593-5.56 6.105-4.845 7.875-4.02 3.538 1.65 2.056 4.497 3.952 5.381 1.896.884 3.504-1.904 3.504-1.904l2.121-4.55c.825-1.77 2.99-2.452 4.633-1.686l8.34 3.89s2.89.731 3.774-1.164c.884-1.896-1.964-3.378-.255-7.042.825-1.77 3.133-4.078 8.693-1.486Z"/><path fill="#E2ECF5" fill-rule="evenodd" stroke-width="2" stroke-linecap="square" stroke="#000" d="M47.206 2.11c5.434 2.535 5.022 5.727 4.197 7.497-1.71 3.664-4.548 2.494-5.432 4.39-.884 1.896 1.66 3.697 1.66 3.697l7.456 3.477a3.452 3.452 0 0 1 1.686 4.633l-2.828 6.066s-1.86 4.979-5.651 3.21c-2.402-1.119-.996-4.463-4.282-5.996-1.516-.707-3.866.044-5.398 3.33-1.532 3.285-.656 5.694.86 6.401 3.16 1.473 4.945-1.694 7.346-.575 3.791 1.768 1.232 6.267 1.232 6.267l-4.538 9.73c-.766 1.644-2.863 2.512-4.632 1.687L28.646 51.15s-5.047-2.046-3.279-5.837c1.12-2.401 4.456-1.307 5.988-4.593.766-1.643-.12-4.363-3.405-5.895-3.286-1.532-6.065-.52-6.831 1.122-1.473 3.16 1.324 5.08.204 7.48-1.827 3.918-6.578 1.24-6.578 1.24l-4.297-2.003c-1.643-.766-2.452-2.99-1.686-4.633l5.244-11.247s1.103-3.024-.793-3.908c-1.895-.884-3.183 2.208-6.722.558-1.769-.825-4.516-3.183-1.923-8.744 2.593-5.56 6.106-4.845 7.875-4.02 3.539 1.65 2.057 4.498 3.953 5.382 1.895.883 3.503-1.905 3.503-1.905l2.122-4.55c.825-1.769 2.99-2.452 4.632-1.686l8.341 3.89s2.89.732 3.773-1.164c.884-1.896-1.963-3.377-.254-7.042.825-1.77 3.132-4.078 8.693-1.485Z"/></svg>