<svg xmlns="http://www.w3.org/2000/svg" baseProfile="full" width="237.108" height="58.664" viewBox="0 0 237.11 58.66" xml:space="preserve"><path d="M94.588 14.21c-1.196 0-2.055.297-2.577.889-.522.592-.783 1.611-.783 3.058v1.715h7l-1.12 6.72h-5.88v22.951h-9.975V26.592H77v-6.72h4.252v-2.144c0-3.126 1.037-5.698 3.111-7.713 2.074-2.015 5.05-3.023 8.93-3.023 1.534 0 3.047.178 4.54.534 1.494.356 2.801.834 3.921 1.435l-2.686 6.422c-1.459-.781-2.952-1.172-4.48-1.172ZM117.206 18.752c.974 0 1.984.21 3.028.63l-1.628 9.59c-.968-.467-1.863-.7-2.686-.7-1.68 0-2.959.59-3.837 1.768-.878 1.178-1.559 2.966-2.043 5.363v14.149h-9.966v-29.68h8.68l.892 5.407c.601-1.971 1.602-3.552 3.002-4.742 1.4-1.19 2.919-1.785 4.558-1.785ZM150.08 34.388c0 .228-.055 1.362-.166 3.404h-18.261c.262 2.17.907 3.656 1.933 4.458 1.027.802 2.494 1.203 4.402 1.203a9.5 9.5 0 0 0 3.329-.612c1.099-.409 2.303-1.039 3.609-1.89l4.034 5.407c-1.569 1.324-3.361 2.374-5.377 3.15-2.015.776-4.198 1.164-6.549 1.164-5.081 0-8.937-1.43-11.568-4.292-2.631-2.861-3.946-6.704-3.946-11.528 0-3.027.551-5.757 1.654-8.19 1.102-2.432 2.736-4.359 4.9-5.78 2.164-1.42 4.777-2.13 7.84-2.13 4.369 0 7.822 1.37 10.36 4.108 2.537 2.739 3.806 6.582 3.806 11.528Zm-9.8-2.572c-.035-2.2-.37-3.9-1.006-5.101-.636-1.202-1.701-1.803-3.194-1.803-1.382 0-2.428.54-3.137 1.619-.709 1.079-1.156 2.966-1.343 5.661h8.68v-.376ZM165.646 18.752c2.164 0 4.227.346 6.187 1.037s3.631 1.635 5.013 2.83l-3.578 5.67c-2.392-1.545-4.801-2.318-7.228-2.318-1.044 0-1.818.157-2.323.472-.505.315-.757.75-.757 1.304 0 .484.131.875.394 1.172.262.298.814.623 1.654.976s2.172.807 3.998 1.36c3.063.893 5.322 2.053 6.777 3.479 1.456 1.426 2.183 3.42 2.183 5.98 0 2.001-.587 3.753-1.763 5.255-1.175 1.502-2.798 2.661-4.869 3.478-2.071.817-4.413 1.225-7.026 1.225-2.544 0-4.925-.413-7.145-1.238-2.219-.825-4.096-1.967-5.63-3.426l4.76-5.381a15.36 15.36 0 0 0 3.727 2.065 11.12 11.12 0 0 0 4.008.761c1.19 0 2.111-.194 2.765-.582.653-.388.98-.97.98-1.745 0-.595-.14-1.059-.42-1.392-.28-.332-.811-.656-1.593-.97-.782-.316-2.126-.75-4.034-1.305-5.786-1.703-8.68-4.83-8.68-9.38 0-1.738.505-3.32 1.514-4.746 1.009-1.427 2.456-2.547 4.34-3.36 1.884-.814 4.133-1.221 6.746-1.221ZM195.326 18.752c2.164 0 4.106.303 5.823.91a14.645 14.645 0 0 1 4.704 2.739l-4.2 5.722c-1.715-1.435-3.524-2.152-5.425-2.152-1.832 0-3.215.674-4.148 2.021-.933 1.348-1.4 3.579-1.4 6.694 0 3.039.467 5.156 1.4 6.352.933 1.196 2.278 1.794 4.034 1.794.933 0 1.792-.152 2.577-.455.784-.303 1.737-.817 2.857-1.54l4.305 6.212c-2.87 2.416-6.286 3.623-10.247 3.623-3.132 0-5.848-.655-8.146-1.964-2.298-1.31-4.063-3.152-5.294-5.526-1.231-2.374-1.846-5.113-1.846-8.216 0-3.144.615-5.942 1.846-8.392 1.231-2.45 2.977-4.366 5.237-5.748 2.261-1.383 4.902-2.074 7.923-2.074ZM222.154 18.813c4.666 0 8.325 1.4 10.977 4.2 2.651 2.8 3.977 6.72 3.977 11.76 0 3.209-.598 6.007-1.794 8.396-1.196 2.389-2.923 4.236-5.18 5.543-2.258 1.307-4.918 1.96-7.98 1.96-4.667 0-8.326-1.4-10.977-4.2-2.651-2.8-3.977-6.72-3.977-11.76 0-3.208.598-6.007 1.794-8.396 1.196-2.388 2.922-4.236 5.18-5.543 2.257-1.306 4.917-1.96 7.98-1.96Zm0 7.219c-1.604 0-2.79.7-3.557 2.1-.767 1.4-1.151 3.593-1.151 6.58 0 3.103.384 5.336 1.151 6.698s1.953 2.043 3.557 2.043c1.604 0 2.788-.7 3.552-2.1.764-1.4 1.147-3.593 1.147-6.58 0-3.062-.383-5.285-1.147-6.667-.764-1.383-1.948-2.074-3.552-2.074Z"/><g fill="#FFF"><path d="M92.588 12.21c-1.196 0-2.055.297-2.577.889-.522.592-.783 1.611-.783 3.058v1.715h7l-1.12 6.72h-5.88v22.951h-9.975V24.592H75v-6.72h4.252v-2.144c0-3.126 1.037-5.697 3.111-7.713 2.074-2.015 5.05-3.023 8.93-3.023 1.534 0 3.047.178 4.54.534 1.494.356 2.8.834 3.92 1.435l-2.685 6.422c-1.459-.781-2.952-1.172-4.48-1.172ZM115.206 16.752c.974 0 1.984.21 3.028.63l-1.628 9.59c-.968-.467-1.863-.7-2.686-.7-1.68 0-2.959.59-3.837 1.768-.878 1.178-1.559 2.966-2.043 5.363v14.149h-9.966v-29.68h8.68l.892 5.407c.601-1.971 1.602-3.552 3.002-4.742 1.4-1.19 2.919-1.785 4.558-1.785ZM148.08 32.388c0 .228-.055 1.362-.166 3.404h-18.261c.262 2.17.907 3.656 1.933 4.458 1.027.802 2.494 1.203 4.402 1.203a9.5 9.5 0 0 0 3.329-.612c1.099-.409 2.303-1.039 3.609-1.89l4.034 5.407c-1.569 1.324-3.361 2.374-5.377 3.15-2.015.776-4.198 1.164-6.549 1.164-5.081 0-8.937-1.43-11.568-4.292-2.631-2.861-3.946-6.704-3.946-11.528 0-3.027.551-5.757 1.654-8.19 1.102-2.432 2.736-4.359 4.9-5.78 2.164-1.42 4.777-2.13 7.84-2.13 4.369 0 7.822 1.37 10.36 4.108 2.537 2.739 3.806 6.582 3.806 11.528Zm-9.8-2.572c-.035-2.2-.37-3.9-1.006-5.101-.636-1.202-1.701-1.803-3.194-1.803-1.382 0-2.428.54-3.137 1.619-.709 1.079-1.156 2.966-1.343 5.661h8.68v-.376ZM163.646 16.752c2.164 0 4.227.346 6.187 1.037s3.631 1.635 5.013 2.83l-3.578 5.67c-2.392-1.545-4.801-2.318-7.228-2.318-1.044 0-1.818.157-2.323.472-.505.315-.757.75-.757 1.304 0 .484.131.875.394 1.172.262.298.814.623 1.654.976s2.172.807 3.998 1.36c3.063.893 5.322 2.053 6.777 3.479 1.456 1.426 2.183 3.42 2.183 5.98 0 2.001-.587 3.753-1.763 5.255-1.175 1.502-2.798 2.661-4.869 3.478-2.071.817-4.413 1.225-7.026 1.225-2.544 0-4.925-.413-7.145-1.238-2.219-.825-4.096-1.967-5.63-3.426l4.76-5.381a15.36 15.36 0 0 0 3.727 2.065 11.12 11.12 0 0 0 4.008.761c1.19 0 2.111-.194 2.765-.582.653-.388.98-.97.98-1.745 0-.595-.14-1.059-.42-1.392-.28-.332-.811-.656-1.593-.97-.782-.316-2.126-.75-4.034-1.305-5.786-1.703-8.68-4.83-8.68-9.38 0-1.738.505-3.32 1.514-4.746 1.009-1.427 2.456-2.547 4.34-3.36 1.884-.814 4.133-1.221 6.746-1.221ZM193.326 16.752c2.164 0 4.106.303 5.823.91a14.645 14.645 0 0 1 4.704 2.739l-4.2 5.722c-1.715-1.435-3.524-2.152-5.425-2.152-1.832 0-3.215.674-4.148 2.021-.933 1.348-1.4 3.579-1.4 6.694 0 3.039.467 5.156 1.4 6.352.933 1.196 2.278 1.794 4.034 1.794.933 0 1.792-.152 2.577-.455.784-.303 1.737-.817 2.857-1.54l4.305 6.212c-2.87 2.416-6.286 3.623-10.247 3.623-3.132 0-5.848-.655-8.146-1.964-2.298-1.31-4.063-3.152-5.294-5.526-1.231-2.374-1.846-5.113-1.846-8.216 0-3.144.615-5.942 1.846-8.392 1.231-2.45 2.977-4.366 5.237-5.748 2.261-1.383 4.902-2.074 7.923-2.074ZM220.154 16.813c4.666 0 8.325 1.4 10.977 4.2 2.651 2.8 3.977 6.72 3.977 11.76 0 3.209-.598 6.007-1.794 8.396-1.196 2.389-2.923 4.236-5.18 5.543-2.258 1.307-4.918 1.96-7.98 1.96-4.667 0-8.326-1.4-10.977-4.2-2.651-2.8-3.977-6.72-3.977-11.76 0-3.208.598-6.007 1.794-8.396 1.196-2.388 2.922-4.236 5.18-5.543 2.257-1.306 4.917-1.96 7.98-1.96Zm0 7.219c-1.604 0-2.79.7-3.557 2.1-.767 1.4-1.151 3.593-1.151 6.58 0 3.103.384 5.336 1.151 6.698s1.953 2.043 3.557 2.043c1.604 0 2.788-.7 3.552-2.1.764-1.4 1.147-3.593 1.147-6.58 0-3.062-.383-5.285-1.147-6.667-.764-1.383-1.948-2.074-3.552-2.074Z"/></g><path d="M8 8.185h44.904a6 6 0 0 1 6 6v30.5a6 6 0 0 1-6 6H8a6 6 0 0 1-6-6v-30.5a6 6 0 0 1 6-6Z"/><linearGradient id="a" gradientUnits="objectBoundingBox" x1=".344" y1="0" x2="1.338" y2="0" gradientTransform="rotate(90 .344 0)"><stop offset="0" stop-color="#FFF"/><stop offset="1" stop-color="#B7B7B7"/></linearGradient><path fill="url(#a)" d="M6 6.185h44.904a6 6 0 0 1 6 6v30.5a6 6 0 0 1-6 6H6a6 6 0 0 1-6-6v-30.5a6 6 0 0 1 6-6Z"/><path fill-rule="evenodd" d="M48.172 4.768c5.435 2.534 5.023 5.727 4.198 7.496-1.71 3.665-4.548 2.495-5.432 4.39-.884 1.896 1.66 3.698 1.66 3.698l7.456 3.477a3.452 3.452 0 0 1 1.686 4.633l-2.828 6.066s-1.86 4.979-5.651 3.21c-2.402-1.119-.996-4.464-4.282-5.996-1.516-.707-3.866.043-5.398 3.33-1.532 3.285-.656 5.694.861 6.4 3.16 1.474 4.944-1.694 7.345-.574 3.791 1.768 1.232 6.267 1.232 6.267l-4.538 9.73c-.766 1.643-2.863 2.512-4.632 1.687l-10.236-4.774s-5.047-2.045-3.279-5.836c1.12-2.401 4.456-1.307 5.988-4.593.766-1.643-.12-4.363-3.405-5.895-3.286-1.533-6.065-.521-6.831 1.122-1.473 3.16 1.324 5.079.204 7.48-1.827 3.918-6.578 1.24-6.578 1.24l-4.297-2.003c-1.643-.766-2.452-2.99-1.686-4.633l5.245-11.247s1.102-3.024-.793-3.909c-1.896-.883-3.184 2.209-6.722.559-1.77-.826-4.517-3.183-1.924-8.744 2.593-5.56 6.106-4.845 7.875-4.02 3.539 1.65 2.057 4.497 3.953 5.381 1.895.884 3.503-1.904 3.503-1.904l2.122-4.55c.825-1.77 2.99-2.452 4.632-1.686l8.341 3.89s2.89.731 3.773-1.164c.884-1.896-1.963-3.378-.254-7.042.825-1.77 3.132-4.078 8.693-1.486Z"/><path fill="#FF1A00" fill-rule="evenodd" stroke-width="2" stroke-linecap="square" stroke="#000" d="M47.205 2.11c5.434 2.535 5.022 5.727 4.197 7.496-1.709 3.665-4.548 2.495-5.432 4.39-.883 1.896 1.661 3.698 1.661 3.698l7.456 3.477a3.452 3.452 0 0 1 1.686 4.633l-2.829 6.066s-1.86 4.979-5.65 3.21c-2.402-1.119-.996-4.463-4.282-5.996-1.516-.707-3.866.044-5.398 3.33-1.533 3.285-.656 5.694.86 6.401 3.16 1.473 4.945-1.695 7.346-.575 3.791 1.768 1.232 6.267 1.232 6.267l-4.538 9.73c-.766 1.644-2.863 2.512-4.633 1.687L28.646 51.15s-5.046-2.046-3.278-5.837c1.12-2.401 4.456-1.307 5.988-4.593.766-1.643-.12-4.363-3.405-5.895-3.286-1.532-6.066-.52-6.832 1.122-1.473 3.16 1.325 5.08.205 7.48-1.827 3.918-6.579 1.24-6.579 1.24l-4.296-2.003c-1.643-.766-2.453-2.99-1.687-4.633l5.245-11.247s1.103-3.024-.793-3.908c-1.895-.884-3.183 2.208-6.722.558-1.77-.825-4.516-3.183-1.923-8.744 2.593-5.56 6.106-4.845 7.875-4.02 3.538 1.65 2.057 4.498 3.952 5.381 1.896.884 3.504-1.904 3.504-1.904l2.121-4.55c.825-1.769 2.99-2.452 4.633-1.686l8.34 3.89s2.89.732 3.774-1.164c.884-1.896-1.964-3.377-.255-7.042.825-1.77 3.133-4.078 8.693-1.485Z"/></svg>